<svg xmlns="http://www.w3.org/2000/svg" width="271.26" height="271.26" viewBox="0 0 71.771 71.771"><defs/><path fill="#bb2205" stroke="#bb2205" stroke-width=".056" d="M35.194 20.403c-5.816.004-10.53 4.72-10.53 10.537 0 1.064-.012 2.121.304 3.137l.348 1.216.268 1.11.997 2.396 3.807 6.037 2.393 3.29 2.312 2.937 2.665-3.209 2.094-2.8 1.74-2.557 1.333-2.393 1.55-3.019.762-2.933c.333-1.038.502-2.122.502-3.212 0-5.82-4.718-10.538-10.537-10.538h-.008zm.014 6.95a3.865 3.865 0 110 7.73 3.865 3.865 0 010-7.73z"/><path fill="#ffe05d" stroke="#ffe05d" stroke-width=".1" d="M12.755 47.658l.098-11.498-7.469-11.006s-.473-1.455 1.95-1.322l3.037.166 1.98.017s1.393-.258 1.964 1.53c.6 1.875 2.415 5.107 2.415 5.107l2.78-6.393 8.65-.226s3.423-.382 1.078 2.24c-2.345 2.624-8.228 10.182-8.228 10.182l-.393 9.434s.058 1.534-1.278 1.585c-1.427.054-6.584.184-6.584.184z"/><path fill="#ffe05d" stroke="#ffe05d" stroke-width=".265" d="M48.771 24.046c-.889-.001-1.757 0-2.495.007-2.045.017-1.523 2.481-1.523 2.481l-.073 1.13c-.767 11.752-.54 19.704-.54 19.704s5.454.113 7.419.05c1.523-.05 1.253-1.109.982-2.949-.167-1.137-.049-2.899-.049-2.899s7.234 1.03 9.336-8.01c2.236-9.615-7.542-9.482-7.542-9.482s-2.847-.028-5.515-.032zm3.321 4.957c.214-.01.481.036.818.16 1.413.523 1.597 1.646 1.597 1.646l-.123 3.513s-.54.934-1.794 1.425c-1.253.492-1.375-.663-1.375-.663l.049-4.987s-.097-1.055.828-1.094z"/></svg>